<svg width="86" height="58" viewBox="0 0 86 58" fill="none" xmlns="http://www.w3.org/2000/svg">
<g clip-path="url(#clip0_548:5237)">
<mask id="mask0_548:5237" style="mask-type:alpha" maskUnits="userSpaceOnUse" x="28" y="18" width="32" height="32">
<circle cx="43.9797" cy="34.1766" r="15.3965" transform="rotate(-45 43.9797 34.1766)" fill="#C4C4C4"/>
</mask>
<g mask="url(#mask0_548:5237)">
<circle cx="49.2876" cy="29.1477" r="22.7059" transform="rotate(-45 49.2876 29.1477)" fill="#D1E0EA"/>
<ellipse cx="60.5035" cy="17.4926" rx="22.7059" ry="22.7059" transform="rotate(-45 60.5035 17.4926)" fill="white"/>
<path d="M60.356 68.1283C60.2691 67.8447 59.7157 67.4269 58.6962 66.8759C58.4201 66.7022 58.0265 66.4662 57.5173 66.1668C57.0077 65.8674 56.5451 65.5915 56.1304 65.3393C55.7148 65.0872 55.3255 64.843 54.9618 64.607C54.9036 64.5598 54.7216 64.4221 54.4159 64.1931C54.1098 63.9648 53.8517 63.7954 53.6401 63.6849C53.4291 63.575 53.2215 63.5197 53.0176 63.5197C52.7264 63.5197 52.3627 63.7444 51.9261 64.1931C51.4894 64.6425 51.0888 65.1305 50.725 65.6588C50.3611 66.1869 49.9752 66.675 49.5679 67.124C49.16 67.5733 48.8248 67.7977 48.563 67.7977C48.4316 67.7977 48.2677 67.7581 48.0714 67.6798C47.8751 67.6011 47.7257 67.5336 47.6232 67.4793C47.5216 67.4237 47.3473 67.3138 47.0996 67.1478C46.8514 66.9823 46.7134 66.8917 46.6843 66.8759C44.6896 65.6781 42.9788 64.3073 41.5517 62.7637C40.125 61.2192 38.858 59.3681 37.7514 57.2094C37.7369 57.1778 37.653 57.0281 37.5002 56.7604C37.3472 56.4924 37.2452 56.3036 37.1943 56.193C37.1433 56.0828 37.0814 55.9212 37.0088 55.7086C36.9361 55.4959 36.8996 55.3187 36.8996 55.1768C36.8996 54.8933 37.1071 54.5308 37.5222 54.0895C37.9371 53.6486 38.3886 53.2309 38.8762 52.8372C39.3642 52.4436 39.8153 52.0102 40.2304 51.5377C40.6453 51.0649 40.8528 50.6712 40.8528 50.3561C40.8528 50.1357 40.8018 49.9109 40.7 49.6826C40.5981 49.4537 40.4416 49.1744 40.2304 48.8433C40.0191 48.5125 39.8917 48.3157 39.8479 48.2524C39.6297 47.8587 39.4043 47.4373 39.1711 46.9882C38.9378 46.5392 38.6832 46.0387 38.4064 45.4873C38.1299 44.9362 37.9116 44.5106 37.7513 44.2113C37.2419 43.1085 36.8561 42.5096 36.594 42.4153C36.492 42.3681 36.339 42.3442 36.1354 42.3442C35.742 42.3442 35.2288 42.4229 34.5955 42.5807C33.9619 42.7382 33.4633 42.9034 33.0993 43.077C32.3712 43.4077 31.5996 44.3688 30.7841 45.9599C30.0415 47.4407 28.2963 50.3931 28.2963 51.8425C28.2963 52.2675 28.3217 52.6811 28.3727 53.0833C28.4236 53.485 28.5147 53.938 28.6459 54.4423C28.7768 54.9465 28.8825 55.321 28.9624 55.5648C29.0423 55.8089 29.1916 56.246 29.41 56.8765C29.6282 57.5068 29.7594 57.8926 29.8031 58.0344C30.3127 59.5786 30.9169 60.9572 31.6158 62.1705C32.7656 64.1872 34.3347 66.2713 36.3222 68.4221C38.3097 70.5728 40.2354 72.2706 42.0993 73.5153C43.2204 74.2714 44.4948 74.9252 45.9216 75.477C46.0527 75.524 46.4093 75.6657 46.9916 75.9026C47.574 76.1388 47.9782 76.3003 48.2037 76.387C48.4293 76.4738 48.7755 76.5882 49.241 76.7301C49.7075 76.8721 50.1258 76.9706 50.497 77.0262C50.8685 77.0805 51.2508 77.1086 51.6437 77.1086C52.9831 77.1086 55.7115 75.2199 57.0802 74.4164C58.5505 73.5343 59.4384 72.6991 59.7442 71.9107C59.905 71.5172 60.0573 70.9776 60.2029 70.292C60.3489 69.6067 60.4215 69.0515 60.4215 68.6259C60.4219 68.4047 60.4 68.2395 60.356 68.1283Z" fill="#597A92"/>
<path d="M31.8742 36.822L24.5062 28.5743L17.2482 33.193C17.5048 37.9217 18.238 47.8189 19.1177 49.5785C19.9975 51.338 32.6806 57.9361 38.9122 61.0152C44.5206 57.4596 55.8694 50.3042 56.3973 50.1283C56.9251 49.9523 54.1246 48.1489 52.6583 47.2691L44.9605 49.0286L31.8742 36.822Z" fill="#597A92"/>
</g>
<mask id="mask1_548:5237" style="mask-type:alpha" maskUnits="userSpaceOnUse" x="28" y="18" width="32" height="32">
<circle cx="43.9797" cy="34.1766" r="15.3965" transform="rotate(-45 43.9797 34.1766)" fill="#C4C4C4"/>
</mask>
<g mask="url(#mask1_548:5237)">
<rect x="20.6665" y="39.2347" width="37.9469" height="0.62208" transform="rotate(-45 20.6665 39.2347)" fill="white"/>
<rect x="22.646" y="41.213" width="37.9469" height="0.62208" transform="rotate(-45 22.646 41.213)" fill="white"/>
<rect x="24.4052" y="42.9734" width="37.9469" height="0.62208" transform="rotate(-45 24.4052 42.9734)" fill="white"/>
<rect x="26.3846" y="44.9529" width="37.9469" height="0.62208" transform="rotate(-45 26.3846 44.9529)" fill="white"/>
<rect x="28.1439" y="46.7122" width="37.9469" height="0.62208" transform="rotate(-45 28.1439 46.7122)" fill="white"/>
<rect x="30.1233" y="48.6915" width="37.9469" height="0.62208" transform="rotate(-45 30.1233 48.6915)" fill="white"/>
<rect x="31.8825" y="50.452" width="37.9469" height="0.62208" transform="rotate(-45 31.8825 50.452)" fill="white"/>
<rect x="33.8619" y="52.4315" width="37.9469" height="0.62208" transform="rotate(-45 33.8619 52.4315)" fill="white"/>
<rect x="35.6212" y="54.1907" width="37.9469" height="0.62208" transform="rotate(-45 35.6212 54.1907)" fill="white"/>
<rect x="37.6006" y="56.17" width="37.9469" height="0.62208" transform="rotate(-45 37.6006 56.17)" fill="white"/>
<rect x="39.3624" y="57.9292" width="37.9469" height="0.62208" transform="rotate(-45 39.3624 57.9292)" fill="white"/>
</g>
<mask id="mask2_548:5237" style="mask-type:alpha" maskUnits="userSpaceOnUse" x="28" y="18" width="32" height="32">
<circle cx="44.1999" cy="33.9564" r="15.3965" transform="rotate(-45 44.1999 33.9564)" fill="#C4C4C4"/>
</mask>
<g mask="url(#mask2_548:5237)">
<rect x="19.5662" y="37.6951" width="37.9469" height="0.62208" transform="rotate(-45 19.5662 37.6951)" fill="#597A92"/>
<rect x="21.328" y="39.4556" width="37.9469" height="0.62208" transform="rotate(-45 21.328 39.4556)" fill="#597A92"/>
<rect x="23.3049" y="41.4349" width="37.9469" height="0.62208" transform="rotate(-45 23.3049 41.4349)" fill="#597A92"/>
<rect x="25.0667" y="43.1942" width="37.9469" height="0.62208" transform="rotate(-45 25.0667 43.1942)" fill="#597A92"/>
<rect x="27.0436" y="45.1737" width="37.9469" height="0.62208" transform="rotate(-45 27.0436 45.1737)" fill="#597A92"/>
<rect x="28.8028" y="46.9341" width="37.9469" height="0.62208" transform="rotate(-45 28.8028 46.9341)" fill="#597A92"/>
<rect x="30.7847" y="48.9122" width="37.9469" height="0.62208" transform="rotate(-45 30.7847 48.9122)" fill="#597A92"/>
<rect x="32.5439" y="50.6714" width="37.9469" height="0.62208" transform="rotate(-45 32.5439 50.6714)" fill="#597A92"/>
<rect x="34.5234" y="52.6509" width="37.9469" height="0.62208" transform="rotate(-45 34.5234 52.6509)" fill="#597A92"/>
<rect x="36.2827" y="54.4114" width="37.9469" height="0.62208" transform="rotate(-45 36.2827 54.4114)" fill="#597A92"/>
<rect x="38.262" y="56.3907" width="37.9469" height="0.62208" transform="rotate(-45 38.262 56.3907)" fill="#597A92"/>
<rect x="40.0212" y="58.15" width="37.9469" height="0.62208" transform="rotate(-45 40.0212 58.15)" fill="#597A92"/>
</g>
<circle cx="44.0883" cy="34.222" r="17.5738" stroke="#597A92" stroke-width="1.5552"/>
<path d="M52.8208 20.2595C61.5102 16.9564 68.2247 16.2585 69.8001 18.9871C72.1621 23.0783 62.0772 33.3228 47.2748 41.869C32.4723 50.4152 18.5578 54.0267 16.1958 49.9356C14.5998 47.1713 18.6865 41.5977 26.0713 35.6369" stroke="#597A92" stroke-width="1.5552"/>
<circle cx="66.5955" cy="26.8466" r="3.42144" fill="#597A92"/>
</g>
<defs>
<clipPath id="clip0_548:5237">
<rect width="68.688" height="49.248" fill="white" transform="translate(12.472 3.88794)"/>
</clipPath>
</defs>
</svg>
